<svg width="20" height="20" viewBox="0 0 20 20" fill="none" xmlns="http://www.w3.org/2000/svg">
<path opacity="0.2" d="M16.875 3.75V6.25C16.875 6.41576 16.8092 6.57473 16.6919 6.69194C16.5747 6.80915 16.4158 6.875 16.25 6.875H13.75C13.5842 6.875 13.4253 6.80915 13.3081 6.69194C13.1908 6.57473 13.125 6.41576 13.125 6.25V3.75C13.125 3.58424 13.1908 3.42527 13.3081 3.30806C13.4253 3.19085 13.5842 3.125 13.75 3.125H16.25C16.4158 3.125 16.5747 3.19085 16.6919 3.30806C16.8092 3.42527 16.875 3.58424 16.875 3.75ZM6.25 3.125H3.75C3.58424 3.125 3.42527 3.19085 3.30806 3.30806C3.19085 3.42527 3.125 3.58424 3.125 3.75V6.25C3.125 6.41576 3.19085 6.57473 3.30806 6.69194C3.42527 6.80915 3.58424 6.875 3.75 6.875H6.25C6.41576 6.875 6.57473 6.80915 6.69194 6.69194C6.80915 6.57473 6.875 6.41576 6.875 6.25V3.75C6.875 3.58424 6.80915 3.42527 6.69194 3.30806C6.57473 3.19085 6.41576 3.125 6.25 3.125ZM16.25 13.125H13.75C13.5842 13.125 13.4253 13.1908 13.3081 13.3081C13.1908 13.4253 13.125 13.5842 13.125 13.75V16.25C13.125 16.4158 13.1908 16.5747 13.3081 16.6919C13.4253 16.8092 13.5842 16.875 13.75 16.875H16.25C16.4158 16.875 16.5747 16.8092 16.6919 16.6919C16.8092 16.5747 16.875 16.4158 16.875 16.25V13.75C16.875 13.5842 16.8092 13.4253 16.6919 13.3081C16.5747 13.1908 16.4158 13.125 16.25 13.125ZM6.25 13.125H3.75C3.58424 13.125 3.42527 13.1908 3.30806 13.3081C3.19085 13.4253 3.125 13.5842 3.125 13.75V16.25C3.125 16.4158 3.19085 16.5747 3.30806 16.6919C3.42527 16.8092 3.58424 16.875 3.75 16.875H6.25C6.41576 16.875 6.57473 16.8092 6.69194 16.6919C6.80915 16.5747 6.875 16.4158 6.875 16.25V13.75C6.875 13.5842 6.80915 13.4253 6.69194 13.3081C6.57473 13.1908 6.41576 13.125 6.25 13.125Z" fill="#8668FF"/>
<path d="M16.25 7.5C16.5815 7.5 16.8995 7.3683 17.1339 7.13388C17.3683 6.89946 17.5 6.58152 17.5 6.25V3.75C17.5 3.41848 17.3683 3.10054 17.1339 2.86612C16.8995 2.6317 16.5815 2.5 16.25 2.5H13.75C13.4185 2.5 13.1005 2.6317 12.8661 2.86612C12.6317 3.10054 12.5 3.41848 12.5 3.75V4.375H7.5V3.75C7.5 3.41848 7.3683 3.10054 7.13388 2.86612C6.89946 2.6317 6.58152 2.5 6.25 2.5H3.75C3.41848 2.5 3.10054 2.6317 2.86612 2.86612C2.6317 3.10054 2.5 3.41848 2.5 3.75V6.25C2.5 6.58152 2.6317 6.89946 2.86612 7.13388C3.10054 7.3683 3.41848 7.5 3.75 7.5H4.375V12.5H3.75C3.41848 12.5 3.10054 12.6317 2.86612 12.8661C2.6317 13.1005 2.5 13.4185 2.5 13.75V16.25C2.5 16.5815 2.6317 16.8995 2.86612 17.1339C3.10054 17.3683 3.41848 17.5 3.75 17.5H6.25C6.58152 17.5 6.89946 17.3683 7.13388 17.1339C7.3683 16.8995 7.5 16.5815 7.5 16.25V15.625H12.5V16.25C12.5 16.5815 12.6317 16.8995 12.8661 17.1339C13.1005 17.3683 13.4185 17.5 13.75 17.5H16.25C16.5815 17.5 16.8995 17.3683 17.1339 17.1339C17.3683 16.8995 17.5 16.5815 17.5 16.25V13.75C17.5 13.4185 17.3683 13.1005 17.1339 12.8661C16.8995 12.6317 16.5815 12.5 16.25 12.5H15.625V7.5H16.25ZM13.75 3.75H16.25V6.25H13.75V3.75ZM3.75 3.75H6.25V4.99219C6.24897 4.99734 6.24897 5.00266 6.25 5.00781V6.25H3.75V3.75ZM6.25 16.25H3.75V13.75H6.25V14.9922C6.24897 14.9973 6.24897 15.0027 6.25 15.0078V16.25ZM16.25 16.25H13.75V13.75H16.25V16.25ZM14.375 12.5H13.75C13.4185 12.5 13.1005 12.6317 12.8661 12.8661C12.6317 13.1005 12.5 13.4185 12.5 13.75V14.375H7.5V13.75C7.5 13.4185 7.3683 13.1005 7.13388 12.8661C6.89946 12.6317 6.58152 12.5 6.25 12.5H5.625V7.5H6.25C6.58152 7.5 6.89946 7.3683 7.13388 7.13388C7.3683 6.89946 7.5 6.58152 7.5 6.25V5.625H12.5V6.25C12.5 6.58152 12.6317 6.89946 12.8661 7.13388C13.1005 7.3683 13.4185 7.5 13.75 7.5H14.375V12.5Z" fill="#8668FF"/>
</svg>
