<svg width="83" height="84" viewBox="0 0 83 84" fill="none" xmlns="http://www.w3.org/2000/svg">
<g filter="url(#filter0_dd_1_4)">
<path d="M35.8327 3.55574C40.1298 0.718088 45.7678 0.980971 49.7821 4.20617C51.7447 5.78289 54.1584 6.69351 56.6734 6.80598C61.8177 7.03603 66.2244 10.5626 67.5764 15.5315C68.2374 17.9606 69.6549 20.1161 71.6234 21.6853C75.6501 24.8952 77.1423 30.3385 75.3155 35.1531C74.4224 37.5068 74.3022 40.0838 74.9724 42.5104C76.3433 47.4741 74.3511 52.7549 70.0432 55.5761C67.9372 56.9554 66.3253 58.9696 65.4411 61.3267C63.6326 66.1482 58.9169 69.2494 53.7735 68.9998C51.259 68.8778 48.7709 69.5598 46.6702 70.9471C42.3731 73.7847 36.7351 73.5219 32.7207 70.2967C30.7582 68.7199 28.3444 67.8093 25.8295 67.6969C20.6851 67.4668 16.2784 63.9402 14.9264 58.9714C14.2655 56.5422 12.848 54.3867 10.8794 52.8175C6.85279 49.6076 5.36058 44.1643 7.18741 39.3498C8.0805 36.9961 8.20066 34.419 7.53046 31.9924C6.15956 27.0288 8.15181 21.748 12.4597 18.9267C14.5657 17.5474 16.1776 15.5332 17.0618 13.1761C18.8702 8.35463 23.586 5.25339 28.7294 5.50303C31.2439 5.62507 33.7319 4.94301 35.8327 3.55574Z" fill="url(#paint0_linear_1_4)"/>
</g>
<g clip-path="url(#clip0_1_4)">
<path opacity="0.2" d="M57.2945 29.8853L45.5815 51.891L33.8234 36.1743L38.3491 24.8992L46.564 22.698L57.2945 29.8853Z" fill="white"/>
<path d="M57.9675 28.8763L47.237 21.689C47.0936 21.593 46.9313 21.5287 46.761 21.5003C46.5908 21.4719 46.4164 21.4801 46.2495 21.5244L29.8198 25.9267C29.6531 25.9718 29.498 26.0519 29.3647 26.1616C29.2315 26.2713 29.1231 26.4082 29.0469 26.563L23.3476 38.1527C23.2146 38.4228 23.1867 38.7328 23.2692 39.0223C23.3517 39.3119 23.5389 39.5606 23.7943 39.72L44.9409 52.921C45.0823 53.0093 45.2403 53.0676 45.4051 53.0922C45.5699 53.1168 45.7381 53.1073 45.899 53.0641C46.06 53.021 46.2104 52.9452 46.3408 52.8415C46.4713 52.7377 46.579 52.6083 46.6572 52.4611L58.3702 30.4554C58.5107 30.1891 58.5473 29.8801 58.4729 29.5883C58.3985 29.2966 58.2184 29.0428 57.9675 28.8763ZM54.3938 29.4046L48.1784 31.0701L41.0107 25.4438L46.3459 24.0142L54.3938 29.4046ZM33.3428 37.5609L40.7236 47.4271L27.4501 39.1398L33.3428 37.5609ZM46.4866 34.039L44.7349 48.7311L35.8718 36.8832L46.4866 34.039ZM35.8561 34.3718L38.8731 26.8546L45.2445 31.8562L35.8561 34.3718ZM49.0156 33.3614L54.9083 31.7824L47.5567 45.5962L49.0156 33.3614ZM30.9812 28.1312L36.3164 26.7016L32.9222 35.158L26.7067 36.8234L30.9812 28.1312Z" fill="white"/>
</g>
<defs>
<filter id="filter0_dd_1_4" x="0.416016" y="0.594482" width="81.6708" height="83.314" filterUnits="userSpaceOnUse" color-interpolation-filters="sRGB">
<feFlood flood-opacity="0" result="BackgroundImageFix"/>
<feColorMatrix in="SourceAlpha" type="matrix" values="0 0 0 0 0 0 0 0 0 0 0 0 0 0 0 0 0 0 127 0" result="hardAlpha"/>
<feOffset dy="3"/>
<feComposite in2="hardAlpha" operator="out"/>
<feColorMatrix type="matrix" values="0 0 0 0 0.431624 0 0 0 0 0.314923 0 0 0 0 0.820545 0 0 0 1 0"/>
<feBlend mode="normal" in2="BackgroundImageFix" result="effect1_dropShadow_1_4"/>
<feColorMatrix in="SourceAlpha" type="matrix" values="0 0 0 0 0 0 0 0 0 0 0 0 0 0 0 0 0 0 127 0" result="hardAlpha"/>
<feOffset dy="5"/>
<feGaussianBlur stdDeviation="3"/>
<feComposite in2="hardAlpha" operator="out"/>
<feColorMatrix type="matrix" values="0 0 0 0 0.458824 0 0 0 0 0.345098 0 0 0 0 0.988235 0 0 0 0.5 0"/>
<feBlend mode="normal" in2="effect1_dropShadow_1_4" result="effect2_dropShadow_1_4"/>
<feBlend mode="normal" in="SourceGraphic" in2="effect2_dropShadow_1_4" result="shape"/>
</filter>
<linearGradient id="paint0_linear_1_4" x1="43.0446" y1="-1.2068" x2="39.4582" y2="75.7096" gradientUnits="userSpaceOnUse">
<stop stop-color="#7F61FB"/>
<stop offset="1" stop-color="#7558FC"/>
</linearGradient>
<clipPath id="clip0_1_4">
<rect width="38.8785" height="38.8785" fill="white" transform="translate(18 24.0625) rotate(-15)"/>
</clipPath>
</defs>
</svg>
