<svg width="14" height="18" viewBox="0 0 14 18" fill="none" xmlns="http://www.w3.org/2000/svg">
<path d="M10.75 17.125C10.75 17.2908 10.6841 17.4498 10.5669 17.567C10.4497 17.6842 10.2907 17.75 10.125 17.75H3.87498C3.70922 17.75 3.55025 17.6842 3.43304 17.567C3.31583 17.4498 3.24998 17.2908 3.24998 17.125C3.24998 16.9593 3.31583 16.8003 3.43304 16.6831C3.55025 16.5659 3.70922 16.5 3.87498 16.5H10.125C10.2907 16.5 10.4497 16.5659 10.5669 16.6831C10.6841 16.8003 10.75 16.9593 10.75 17.125ZM13.875 7.12504C13.8777 8.16695 13.6423 9.1957 13.1868 10.1328C12.7314 11.0699 12.0678 11.8905 11.2469 12.5321C11.0934 12.6497 10.9688 12.8009 10.8827 12.9741C10.7965 13.1473 10.7512 13.3379 10.75 13.5313V14C10.75 14.3316 10.6183 14.6495 10.3839 14.8839C10.1494 15.1183 9.8315 15.25 9.49998 15.25H4.49998C4.16846 15.25 3.85052 15.1183 3.6161 14.8839C3.38168 14.6495 3.24998 14.3316 3.24998 14V13.5313C3.24985 13.3402 3.20591 13.1517 3.12154 12.9802C3.03716 12.8088 2.91459 12.6589 2.76326 12.5422C1.94446 11.9045 1.28143 11.089 0.824353 10.1572C0.367273 9.22544 0.128116 8.20193 0.12498 7.1641C0.104668 3.43989 3.11404 0.339886 6.83436 0.250042C7.75103 0.227952 8.66287 0.389459 9.5162 0.725056C10.3695 1.06065 11.1471 1.56356 11.8031 2.20418C12.4592 2.84479 12.9805 3.61017 13.3363 4.45527C13.6921 5.30036 13.8752 6.2081 13.875 7.12504ZM12.625 7.12504C12.6252 6.37478 12.4753 5.63205 12.1842 4.94058C11.893 4.24911 11.4665 3.62287 10.9297 3.09872C10.3929 2.57458 9.75663 2.16312 9.05841 1.88856C8.36018 1.61401 7.61409 1.48191 6.86404 1.50004C3.81717 1.57192 1.35857 4.10864 1.37498 7.15551C1.37778 8.00442 1.57364 8.84156 1.94776 9.60359C2.32187 10.3656 2.86442 11.0326 3.53436 11.5539C3.83548 11.788 4.07906 12.0879 4.24643 12.4307C4.4138 12.7734 4.50053 13.1499 4.49998 13.5313V14H6.37498V10.5086L4.05779 8.19223C3.94052 8.07495 3.87463 7.91589 3.87463 7.75004C3.87463 7.58419 3.94052 7.42513 4.05779 7.30785C4.17507 7.19058 4.33413 7.12469 4.49998 7.12469C4.66583 7.12469 4.82489 7.19058 4.94217 7.30785L6.99998 9.36645L9.05779 7.30785C9.11586 7.24979 9.1848 7.20372 9.26067 7.1723C9.33654 7.14087 9.41786 7.12469 9.49998 7.12469C9.5821 7.12469 9.66342 7.14087 9.73929 7.1723C9.81516 7.20372 9.8841 7.24979 9.94217 7.30785C10.0002 7.36592 10.0463 7.43486 10.0777 7.51073C10.1092 7.5866 10.1253 7.66792 10.1253 7.75004C10.1253 7.83216 10.1092 7.91348 10.0777 7.98935C10.0463 8.06522 10.0002 8.13416 9.94217 8.19223L7.62498 10.5086V14H9.49998V13.5313C9.50067 13.1488 9.58881 12.7714 9.75766 12.4282C9.92651 12.0849 10.1716 11.7848 10.4742 11.5508C11.1462 11.0257 11.6892 10.354 12.062 9.58694C12.4347 8.81991 12.6273 7.97785 12.625 7.12504Z" fill="#FC9458"/>
</svg>
