<svg width="32" height="33" viewBox="0 0 32 33" fill="none" xmlns="http://www.w3.org/2000/svg">
<rect x="0.5" y="1" width="31" height="31" rx="11.5" stroke="#E0E0DB"/>
<path fill-rule="evenodd" clip-rule="evenodd" d="M9.75 9.20215C9.06 9.20215 8.5 9.76215 8.5 10.4521V22.9521C8.5 23.6421 9.06 24.2021 9.75 24.2021H22.25C22.94 24.2021 23.5 23.6421 23.5 22.9521V10.4521C23.5 9.76215 22.94 9.20215 22.25 9.20215H9.75ZM13.1 12.5381C13.105 13.3351 12.509 13.8261 11.801 13.8221C11.6345 13.8215 11.4699 13.7877 11.3167 13.7226C11.1635 13.6575 11.0248 13.5624 10.9089 13.443C10.7929 13.3236 10.7019 13.1822 10.6413 13.0272C10.5808 12.8721 10.5517 12.7066 10.556 12.5401C10.56 11.8361 11.116 11.2701 11.84 11.2861C12.573 11.3021 13.105 11.8391 13.1 12.5381ZM16.233 14.8381H14.132V21.9711H16.352V21.8051L16.351 20.8551C16.351 20.0101 16.349 19.1651 16.354 18.3201C16.3484 18.1133 16.3696 17.9066 16.417 17.7051C16.615 16.9751 17.273 16.5021 18.007 16.6181C18.477 16.6921 18.789 16.9651 18.92 17.4091C19.001 17.6871 19.037 17.9861 19.04 18.2751C19.0487 19.1485 19.0513 20.0218 19.048 20.8951L19.047 21.8191V21.9701H21.273V20.6691C21.2723 19.7285 21.273 18.7871 21.275 17.8451C21.2784 17.4218 21.228 16.9998 21.125 16.5891C20.97 15.9771 20.648 15.4711 20.124 15.1051C19.752 14.8451 19.344 14.6771 18.889 14.6591L18.732 14.6511C18.499 14.6381 18.262 14.6251 18.039 14.6711C17.401 14.7981 16.841 15.0901 16.419 15.6041L16.249 15.8131L16.233 15.8331V14.8381ZM10.735 21.9741H12.944V14.8421H10.734L10.735 21.9741Z" fill="#5F5F69"/>
</svg>
