<svg width="49" height="48" viewBox="0 0 49 48" fill="none" xmlns="http://www.w3.org/2000/svg">
<rect opacity="0.2" x="0.954468" width="48" height="48" rx="10" fill="#94D610"/>
<g clip-path="url(#clip0_223_516)">
<path opacity="0.2" d="M37.2045 23.125C37.2045 24.2853 36.7435 25.3981 35.9231 26.2186C35.1026 27.0391 33.9898 27.5 32.8295 27.5H28.4545V18.75H32.8295C33.9898 18.75 35.1026 19.2109 35.9231 20.0314C36.7435 20.8519 37.2045 21.9647 37.2045 23.125Z" fill="#4E7501"/>
<path d="M38.0795 23.125C38.078 21.7331 37.5244 20.3986 36.5402 19.4143C35.5559 18.43 34.2214 17.8765 32.8295 17.875H28.4763C28.1581 17.8564 22.6117 17.4659 17.3299 13.0363C17.0749 12.8221 16.764 12.6851 16.4338 12.6414C16.1036 12.5978 15.7678 12.6493 15.4658 12.7899C15.1639 12.9304 14.9083 13.1543 14.7292 13.4351C14.55 13.7159 14.4547 14.0419 14.4545 14.375V31.875C14.4545 32.2082 14.5497 32.5344 14.7287 32.8154C14.9078 33.0963 15.1634 33.3203 15.4653 33.461C15.7673 33.6017 16.1032 33.6533 16.4335 33.6097C16.7638 33.5661 17.0748 33.4291 17.3299 33.2149C21.461 29.7499 25.7518 28.7567 27.5795 28.4789V31.9483C27.5791 32.2367 27.65 32.5207 27.7859 32.775C27.9217 33.0294 28.1183 33.2462 28.3582 33.4063L29.5613 34.208C29.7939 34.3632 30.0602 34.4604 30.3381 34.4915C30.6159 34.5227 30.8972 34.4868 31.1583 34.3868C31.4194 34.2869 31.6528 34.1259 31.8389 33.9172C32.025 33.7085 32.1584 33.4583 32.2279 33.1875L33.5152 28.3356C34.7782 28.1676 35.9372 27.5466 36.7767 26.5882C37.6163 25.6298 38.0792 24.3991 38.0795 23.125ZM16.2045 31.8674V14.375C20.8868 18.3027 25.6796 19.2969 27.5795 19.5419V26.7038C25.6818 26.9531 20.8901 27.9452 16.2045 31.8674ZM30.5326 32.7424V32.7544L29.3295 31.9527V28.375H31.692L30.5326 32.7424ZM32.8295 26.625H29.3295V19.625H32.8295C33.7577 19.625 34.648 19.9938 35.3043 20.6501C35.9607 21.3065 36.3295 22.1968 36.3295 23.125C36.3295 24.0533 35.9607 24.9435 35.3043 25.5999C34.648 26.2563 33.7577 26.625 32.8295 26.625Z" fill="#4E7501"/>
</g>
<defs>
<clipPath id="clip0_223_516">
<rect width="28" height="28" fill="white" transform="translate(10.9545 10)"/>
</clipPath>
</defs>
</svg>
