<svg width="48" height="48" viewBox="0 0 48 48" fill="none" xmlns="http://www.w3.org/2000/svg">
<rect opacity="0.2" width="48" height="48" rx="10" fill="#7F61FB"/>
<path opacity="0.2" d="M14.375 30.125H21.375V32.75C21.375 32.9821 21.2828 33.2046 21.1187 33.3687C20.9546 33.5328 20.7321 33.625 20.5 33.625H15.25C15.0179 33.625 14.7954 33.5328 14.6313 33.3687C14.4672 33.2046 14.375 32.9821 14.375 32.75V30.125ZM32.75 14.375H27.5C27.2679 14.375 27.0454 14.4672 26.8813 14.6313C26.7172 14.7954 26.625 15.0179 26.625 15.25V32.75C26.625 32.9821 26.7172 33.2046 26.8813 33.3687C27.0454 33.5328 27.2679 33.625 27.5 33.625H32.75C32.9821 33.625 33.2046 33.5328 33.3687 33.3687C33.5328 33.2046 33.625 32.9821 33.625 32.75V15.25C33.625 15.0179 33.5328 14.7954 33.3687 14.6313C33.2046 14.4672 32.9821 14.375 32.75 14.375Z" fill="#8668FF"/>
<path d="M32.75 13.5H27.5C27.0359 13.5 26.5908 13.6843 26.2626 14.0125C25.9344 14.3407 25.75 14.7858 25.75 15.25V32.75C25.75 33.2141 25.9344 33.6592 26.2626 33.9874C26.5908 34.3156 27.0359 34.5 27.5 34.5H32.75C33.2141 34.5 33.6592 34.3156 33.9874 33.9874C34.3156 33.6592 34.5 33.2141 34.5 32.75V15.25C34.5 14.7858 34.3156 14.3407 33.9874 14.0125C33.6592 13.6843 33.2141 13.5 32.75 13.5ZM32.75 32.75H27.5V29.25H30.125C30.3571 29.25 30.5796 29.1578 30.7437 28.9937C30.9078 28.8296 31 28.607 31 28.375C31 28.1429 30.9078 27.9203 30.7437 27.7562C30.5796 27.5921 30.3571 27.5 30.125 27.5H27.5V24.875H30.125C30.3571 24.875 30.5796 24.7828 30.7437 24.6187C30.9078 24.4546 31 24.232 31 24C31 23.7679 30.9078 23.5453 30.7437 23.3812C30.5796 23.2171 30.3571 23.125 30.125 23.125H27.5V20.5H30.125C30.3571 20.5 30.5796 20.4078 30.7437 20.2437C30.9078 20.0796 31 19.857 31 19.625C31 19.3929 30.9078 19.1703 30.7437 19.0062C30.5796 18.8421 30.3571 18.75 30.125 18.75H27.5V15.25H32.75V32.75ZM18.4941 12.8809C18.4128 12.7995 18.3163 12.735 18.2101 12.691C18.1038 12.6469 17.99 12.6243 17.875 12.6243C17.76 12.6243 17.6462 12.6469 17.5399 12.691C17.4337 12.735 17.3372 12.7995 17.2559 12.8809L13.7559 16.3809C13.6747 16.4622 13.6103 16.5587 13.5664 16.665C13.5225 16.7712 13.4999 16.885 13.5 17V32.75C13.5 33.2141 13.6844 33.6592 14.0126 33.9874C14.3408 34.3156 14.7859 34.5 15.25 34.5H20.5C20.9641 34.5 21.4092 34.3156 21.7374 33.9874C22.0656 33.6592 22.25 33.2141 22.25 32.75V17C22.2501 16.885 22.2275 16.7712 22.1836 16.665C22.1397 16.5587 22.0753 16.4622 21.9941 16.3809L18.4941 12.8809ZM15.25 29.25V18.75H17V29.25H15.25ZM18.75 18.75H20.5V29.25H18.75V18.75ZM17.875 14.737L20.138 17H15.612L17.875 14.737ZM15.25 32.75V31H20.5V32.75H15.25Z" fill="#8668FF"/>
</svg>
