<svg width="116" height="53" viewBox="0 0 116 53" fill="none" xmlns="http://www.w3.org/2000/svg">
<path d="M3.68832 39.9797C3.88358 40.175 4.20016 40.175 4.39542 39.9797L7.5774 36.7977C7.77267 36.6025 7.77267 36.2859 7.5774 36.0906C7.38214 35.8954 7.06556 35.8954 6.8703 36.0906L4.04187 38.9191L1.21344 36.0906C1.01818 35.8954 0.701598 35.8954 0.506336 36.0906C0.311074 36.2859 0.311074 36.6025 0.506336 36.7977L3.68832 39.9797ZM4.56339 38.6776C4.57576 38.4017 4.36216 38.1681 4.08629 38.1557C3.81043 38.1433 3.57677 38.3569 3.5644 38.6328L4.56339 38.6776ZM3.73551 36.656C3.7007 36.9299 3.89456 37.1802 4.1685 37.215C4.44244 37.2498 4.69273 37.0559 4.72753 36.782L3.73551 36.656ZM5.03936 34.8981C5.09442 34.6275 4.91969 34.3635 4.6491 34.3084C4.3785 34.2534 4.1145 34.4281 4.05944 34.6987L5.03936 34.8981ZM4.52261 32.7725C4.44878 33.0386 4.60463 33.3141 4.87072 33.388C5.13681 33.4618 5.41237 33.3059 5.4862 33.0399L4.52261 32.7725ZM6.05931 31.2166C6.15092 30.9561 6.014 30.6707 5.7535 30.5791C5.493 30.4874 5.20755 30.6244 5.11594 30.8849L6.05931 31.2166ZM5.83469 29.0398C5.72596 29.2937 5.84358 29.5876 6.09742 29.6963C6.35125 29.8051 6.64517 29.6874 6.7539 29.4336L5.83469 29.0398ZM7.56461 27.7024C7.68999 27.4564 7.59218 27.1553 7.34615 27.0299C7.10011 26.9046 6.79901 27.0024 6.67363 27.2484L7.56461 27.7024ZM7.63138 25.5157C7.4897 25.7527 7.56699 26.0597 7.80401 26.2014C8.04103 26.3431 8.34804 26.2658 8.48972 26.0287L7.63138 25.5157ZM9.52599 24.4229C9.68365 24.1962 9.62767 23.8846 9.40096 23.7269C9.17425 23.5693 8.86266 23.6253 8.70499 23.852L9.52599 24.4229ZM9.89217 22.2668C9.7189 22.4818 9.75274 22.7966 9.96776 22.9699C10.1828 23.1431 10.4975 23.1093 10.6708 22.8943L9.89217 22.2668ZM11.9227 21.4509C12.1111 21.249 12.1002 20.9326 11.8983 20.7442C11.6965 20.5558 11.3801 20.5667 11.1917 20.7686L11.9227 21.4509ZM12.5961 19.3715C12.3932 19.5588 12.3806 19.8751 12.5678 20.078C12.7551 20.281 13.0715 20.2936 13.2744 20.1063L12.5961 19.3715ZM14.7242 18.8666C14.9408 18.6953 14.9775 18.3808 14.8062 18.1643C14.6349 17.9477 14.3204 17.911 14.1038 18.0823L14.7242 18.8666ZM15.7072 16.9117C15.4781 17.0658 15.4172 17.3764 15.5713 17.6056C15.7253 17.8348 16.036 17.8957 16.2652 17.7416L15.7072 16.9117ZM17.8856 16.7413C18.126 16.6054 18.2108 16.3004 18.075 16.06C17.9392 15.8196 17.6342 15.7347 17.3938 15.8706L17.8856 16.7413ZM19.1575 14.9626C18.9073 15.0794 18.7992 15.3769 18.916 15.6271C19.0328 15.8773 19.3303 15.9855 19.5806 15.8687L19.1575 14.9626ZM21.3401 15.128C21.5985 15.0306 21.729 14.7422 21.6317 14.4838C21.5343 14.2254 21.2459 14.0948 20.9875 14.1922L21.3401 15.128ZM22.8676 13.5628C22.6027 13.6407 22.4511 13.9186 22.5291 14.1836C22.607 14.4485 22.8849 14.6001 23.1499 14.5221L22.8676 13.5628ZM24.9974 14.0501C25.2672 13.9913 25.4383 13.7249 25.3794 13.4551C25.3206 13.1853 25.0542 13.0143 24.7844 13.0731L24.9974 14.0501ZM26.7302 12.7185C26.4571 12.7588 26.2683 13.0129 26.3085 13.2861C26.3488 13.5593 26.603 13.7481 26.8762 13.7078L26.7302 12.7185ZM28.7761 13.4906C29.0513 13.468 29.2561 13.2266 29.2335 12.9513C29.2109 12.6761 28.9695 12.4713 28.6943 12.4939L28.7761 13.4906ZM30.6669 12.3927C30.3908 12.3986 30.1718 12.6272 30.1776 12.9032C30.1835 13.1793 30.4121 13.3984 30.6882 13.3925L30.6669 12.3927ZM32.6048 13.4066C32.8807 13.4163 33.1124 13.2005 33.1221 12.9245C33.1319 12.6486 32.9161 12.417 32.6401 12.4072L32.6048 13.4066ZM34.6075 12.5293C34.3324 12.505 34.0898 12.7083 34.0655 12.9834C34.0412 13.2585 34.2445 13.5012 34.5196 13.5254L34.6075 12.5293ZM4.54187 39.6262C4.54187 39.3146 4.54901 38.9982 4.56339 38.6776L3.5644 38.6328C3.54936 38.968 3.54187 39.2993 3.54187 39.6262H4.54187ZM4.72753 36.782C4.80613 36.1634 4.90991 35.5343 5.03936 34.8981L4.05944 34.6987C3.92514 35.3587 3.81728 36.0123 3.73551 36.656L4.72753 36.782ZM5.4862 33.0399C5.65427 32.4342 5.84519 31.8255 6.05931 31.2166L5.11594 30.8849C4.89436 31.515 4.69669 32.1451 4.52261 32.7725L5.4862 33.0399ZM6.7539 29.4336C7.00255 28.8532 7.27269 28.2753 7.56461 27.7024L6.67363 27.2484C6.37151 27.8413 6.09196 28.4393 5.83469 29.0398L6.7539 29.4336ZM8.48972 26.0287C8.81439 25.4856 9.15973 24.9496 9.52599 24.4229L8.70499 23.852C8.32539 24.3978 7.96761 24.9532 7.63138 25.5157L8.48972 26.0287ZM10.6708 22.8943C11.068 22.4014 11.4852 21.9196 11.9227 21.4509L11.1917 20.7686C10.7373 21.2553 10.3042 21.7555 9.89217 22.2668L10.6708 22.8943ZM13.2744 20.1063C13.7382 19.6782 14.2215 19.2643 14.7242 18.8666L14.1038 18.0823C13.5808 18.496 13.0783 18.9264 12.5961 19.3715L13.2744 20.1063ZM16.2652 17.7416C16.7868 17.3909 17.3269 17.0569 17.8856 16.7413L17.3938 15.8706C16.8123 16.1991 16.2501 16.5467 15.7072 16.9117L16.2652 17.7416ZM19.5806 15.8687C20.1497 15.603 20.7361 15.3556 21.3401 15.128L20.9875 14.1922C20.3596 14.4288 19.7497 14.6861 19.1575 14.9626L19.5806 15.8687ZM23.1499 14.5221C23.7499 14.3456 24.3657 14.1879 24.9974 14.0501L24.7844 13.0731C24.1295 13.2158 23.4907 13.3795 22.8676 13.5628L23.1499 14.5221ZM26.8762 13.7078C27.4953 13.6165 28.1285 13.5437 28.7761 13.4906L28.6943 12.4939C28.0255 12.5488 27.3709 12.624 26.7302 12.7185L26.8762 13.7078ZM30.6882 13.3925C31.3146 13.3791 31.9534 13.3836 32.6048 13.4066L32.6401 12.4072C31.9702 12.3835 31.3124 12.379 30.6669 12.3927L30.6882 13.3925ZM34.5196 13.5254C34.8387 13.5536 35.1606 13.5861 35.4854 13.623L35.5983 12.6294C35.2653 12.5915 34.935 12.5582 34.6075 12.5293L34.5196 13.5254Z" fill="url(#paint0_linear_213_61)"/>
<path d="M51.5317 30.1753C51.2136 29.9352 50.961 29.7325 50.774 29.567C50.5792 29.4214 50.4817 29.3486 50.4817 29.3486C50.5606 29.265 50.5759 29.1679 50.5278 29.0572C50.4996 28.9543 50.3802 28.8499 50.1697 28.744C49.9503 28.4282 49.7522 28.029 49.5755 27.5466C49.3988 27.0642 49.2658 26.5875 49.1763 26.1165C49.0868 25.6455 49.0376 25.305 49.0286 25.0951C49.0071 24.7427 49.0874 24.568 49.2697 24.571C49.4597 24.5542 49.6835 24.5393 49.9409 24.5261C50.2218 24.4534 50.497 24.4243 50.7665 24.4388C51.0558 24.4612 51.2133 24.6723 51.239 25.0723C51.3171 25.6305 51.5614 26.174 51.9721 26.7028C52.4026 27.2395 52.9534 27.6745 53.6245 28.0079C54.3155 28.3492 55.077 28.5118 55.9088 28.4958C56.4712 28.4653 56.8466 28.2693 57.0349 27.9079C57.2311 27.5266 57.2623 27.0114 57.1283 26.3624C57.1314 26.1802 57.0929 26.0159 57.013 25.8698C56.9529 25.7314 56.845 25.5398 56.6893 25.295C56.5534 25.0579 56.3673 24.6865 56.1311 24.1806C55.8882 23.9243 55.6612 23.6857 55.4502 23.4649C55.2589 23.2519 55.0518 23.0212 54.8287 22.7727C54.5738 22.4888 54.3026 22.1296 54.0152 21.6952C53.7357 21.241 53.4937 20.7787 53.2894 20.3083C53.0928 19.8181 52.9679 19.379 52.9144 18.991C52.7143 18.5681 52.6762 18.083 52.8003 17.5357C52.9322 16.9685 53.1651 16.4068 53.4991 15.8505C53.8529 15.3021 54.2527 14.8406 54.6985 14.466C54.9272 14.2351 55.2863 13.9639 55.776 13.6525C56.2735 13.3213 56.8147 12.9957 57.3994 12.6759C57.9841 12.3561 58.5294 12.0781 59.0354 11.8418C59.5689 11.5936 59.9723 11.443 60.2454 11.3902C60.4667 11.294 60.698 11.2017 60.9392 11.1134C61.1883 11.0052 61.3128 10.9511 61.3128 10.9511C61.3718 10.8597 61.4211 10.8218 61.4608 10.8375C61.5203 10.8609 61.5501 10.8727 61.5501 10.8727C61.6728 10.8523 61.9303 10.8391 62.3224 10.8332C62.7146 10.8273 63.1835 10.7141 63.7291 10.4935C65.3092 10.3827 66.6087 10.402 67.6275 10.5515C68.6542 10.6811 69.4355 10.8515 69.9713 11.0628C70.4597 11.2783 70.8911 11.6089 71.2657 12.0547C71.6481 12.4807 71.9337 12.9487 72.1224 13.4588C72.331 13.9768 72.3711 14.4856 72.2428 14.9854C72.194 15.5165 71.8976 16.0647 71.3537 16.6299C70.8375 17.1831 70.2238 17.6635 69.5127 18.0711C68.8294 18.4667 68.1848 18.7056 67.5791 18.7878C66.9295 18.8068 66.4414 18.6488 66.1149 18.3137C65.8083 17.9864 65.7392 17.6381 65.9077 17.2689C65.9703 17.1101 66.0943 16.9411 66.2796 16.7619C66.4847 16.5906 66.945 16.3248 67.6602 15.9648C68.6631 15.2824 69.2626 14.7506 69.4588 14.3693C69.655 13.988 69.5664 13.6893 69.1929 13.4733C69.0895 13.3867 68.8573 13.3066 68.4965 13.2331C68.1356 13.1596 67.7371 13.0942 67.3011 13.037C66.8927 12.9677 66.5201 12.924 66.1833 12.9058C65.8663 12.8955 65.7 12.9102 65.6843 12.9499C65.6843 12.9499 65.6726 12.9797 65.6491 13.0392C65.6257 13.0987 65.5781 13.1029 65.5066 13.0518C65.4669 13.0361 65.3006 13.0508 65.0076 13.0959C64.7424 13.1289 64.4119 13.182 64.0161 13.2553C63.6203 13.3285 63.2206 13.4117 62.8169 13.5048C62.441 13.5859 62.1126 13.6628 61.8317 13.7355C61.5508 13.8082 61.3925 13.8605 61.3571 13.8923C61.2313 14.095 60.9248 14.2035 60.4376 14.2178C59.9468 14.2994 59.4664 14.4999 58.9966 14.8191C58.5267 15.1384 57.9603 15.5571 57.2973 16.0754C56.78 16.3989 56.3462 16.8011 55.996 17.2822C55.6536 17.7434 55.4893 18.1602 55.503 18.5325C55.4771 18.8892 55.6198 19.3124 55.9312 19.8021C56.2703 20.2797 56.7369 20.8994 57.3309 21.661C57.857 22.3042 58.3356 22.9515 58.7667 23.603C59.1977 24.2545 59.5434 24.8609 59.8037 25.4222C60.0718 25.9636 60.2145 26.3868 60.2318 26.6917C60.337 27.123 60.3233 27.5648 60.1909 28.0171C60.0782 28.4772 59.91 28.9039 59.6861 29.2972C59.4899 29.6784 59.3013 29.9824 59.1202 30.2091C58.8561 30.4719 58.5047 30.7232 58.0662 30.9631C57.6475 31.2108 57.323 31.2777 57.0926 31.164C56.8508 31.1374 56.6548 31.1404 56.5044 31.1728C56.3739 31.2131 56.2274 31.2356 56.065 31.2404C55.8948 31.265 55.5321 31.2252 54.977 31.121C54.414 31.0366 53.8132 30.9029 53.1744 30.7198C52.5279 30.5567 51.9803 30.3751 51.5317 30.1753ZM65.066 33.4134C64.4514 33.2857 63.8954 33.0092 63.3981 32.5838C62.9206 32.1662 62.5795 31.6648 62.3745 31.0795C62.1973 30.4822 62.2338 29.866 62.4842 29.2309C62.6594 28.612 62.9868 27.927 63.4664 27.1759C63.9737 26.4128 64.5604 25.681 65.2264 24.9804C65.9123 24.2877 66.5969 23.7436 67.2803 23.348C67.8651 23.0282 68.4341 22.7481 68.9876 22.5077C69.541 22.2672 70.0039 22.1402 70.3762 22.1264C70.701 22.1169 71.0736 22.1606 71.494 22.2576C71.9421 22.3425 72.2455 22.4163 72.4043 22.4789C72.6905 22.6835 72.9869 22.9494 73.2936 23.2767C73.6201 23.6118 73.7364 23.8985 73.6425 24.1366C73.6425 24.1366 73.6506 24.1742 73.6668 24.2494C73.7107 24.3126 73.7327 24.3442 73.7327 24.3442C73.8517 24.3911 73.9221 24.5908 73.9436 24.9433C73.9928 25.2837 73.9828 25.6582 73.9135 26.0665C73.852 26.4551 73.7187 26.735 73.5136 26.9064C73.2855 27.2522 72.982 27.5567 72.603 27.8201C72.2438 28.0912 71.9849 28.1955 71.8261 28.1329C71.7467 28.1016 71.6634 28.0802 71.5762 28.0688C71.5166 28.0453 71.4673 28.0832 71.4282 28.1824C71.3891 28.2816 71.2603 28.2882 71.042 28.2021C70.8436 28.1239 70.6508 28.002 70.4638 27.8366C70.2768 27.6711 70.1848 27.4973 70.1879 27.315C70.227 27.2158 70.2977 27.0946 70.4 26.9515C70.5023 26.8084 70.6675 26.5639 70.8956 26.2181C71.2337 25.7094 71.3884 25.3461 71.3596 25.1284C71.3386 24.8908 71.0984 24.7731 70.6388 24.7754C70.0331 24.8576 69.4972 25.0247 69.031 25.2766C68.5726 25.5086 68.0853 25.9012 67.569 26.4544C67.0726 27.0155 66.4448 27.8228 65.6854 28.8763C65.3863 29.2859 65.2256 29.6353 65.2033 29.9246C65.2008 30.2217 65.2254 30.3919 65.2771 30.4352C65.5237 30.6242 65.8136 30.7614 66.1467 30.8469C66.5076 30.9204 66.8207 30.9406 67.0859 30.9076C67.4661 30.8741 67.8104 30.8149 68.119 30.7302C68.4553 30.6335 68.8153 30.5346 69.1991 30.4337C69.3218 30.4133 69.4541 30.3393 69.5961 30.2119C69.7459 30.0645 69.9159 29.9825 70.1059 29.9657C70.3586 29.7901 70.604 29.7493 70.8422 29.8432C71.108 29.9251 71.36 30.013 71.5981 30.1069C71.7413 30.2092 71.8708 30.3749 71.9869 30.6041C72.1029 30.8333 72.1693 31.0429 72.1861 31.233C72.2305 31.4111 72.1815 31.5064 72.0389 31.519C71.9595 31.4877 71.8982 31.4979 71.8549 31.5496C71.8392 31.5893 71.8314 31.6091 71.8314 31.6091C71.8398 31.7042 71.68 31.8476 71.3522 32.0394C71.0442 32.239 70.6688 32.4349 70.226 32.6273C69.7833 32.8196 69.3661 32.9762 68.9745 33.097C68.6106 33.2057 68.3691 33.2366 68.25 33.1897C68.0516 33.1114 67.9289 33.1318 67.8819 33.2509C67.8663 33.2906 67.6783 33.3312 67.318 33.3725C66.9775 33.4218 66.5875 33.4514 66.1478 33.4615C65.7279 33.4794 65.3674 33.4634 65.066 33.4134ZM74.9827 36.4634C74.9154 36.4598 74.7903 36.399 74.6075 36.281C74.4445 36.1709 74.2755 36.047 74.1005 35.9092C73.9454 35.7792 73.8558 35.6866 73.8318 35.6312C73.7837 35.5205 73.7293 35.3386 73.6686 35.0853C73.6158 34.8122 73.6499 34.4932 73.7709 34.1281C73.9117 33.7709 74.2486 33.4107 74.7817 33.0475C74.9591 32.8882 75.1956 32.6375 75.491 32.2953C75.7864 31.9532 76.0897 31.5912 76.4008 31.2093C76.7395 30.8154 77.0388 30.4634 77.2988 30.1531C77.5786 29.8506 77.7756 29.6417 77.8899 29.5262C78.0626 29.2045 78.1367 28.9585 78.1121 28.7883C78.1151 28.606 77.9817 28.4502 77.7116 28.3208C77.5132 28.2426 77.3818 28.1105 77.3175 27.9246C77.273 27.7466 77.3212 27.4789 77.4621 27.1217C77.6113 26.8595 77.7747 26.6487 77.9522 26.4894C78.1573 26.318 78.3865 26.202 78.6397 26.1413C78.8773 26.1203 79.1528 26.1487 79.4661 26.2264C79.7993 26.3119 80.1109 26.4233 80.4007 26.5605C80.6906 26.6977 80.8716 26.8493 80.9437 27.0153C81.0514 27.1495 81.0901 27.3712 81.0599 27.6803C81.0574 27.9774 81.0312 28.2767 80.9812 28.578C80.9312 28.8793 80.8887 29.1034 80.8538 29.2501C81.1148 29.1696 81.4192 29.0373 81.7669 28.8534C82.1423 28.6574 82.5099 28.4813 82.8696 28.325C83.2732 28.2319 83.7364 28.1623 84.2591 28.1161C84.7896 28.0501 85.1541 28.0562 85.3525 28.1345C85.5708 28.2206 85.7957 28.4354 86.0272 28.7789C86.2665 29.1025 86.3945 29.3594 86.4113 29.5495C86.4768 29.9651 86.4748 30.3771 86.4055 30.7855C86.3639 31.1819 86.1792 31.4759 85.8513 31.6677C85.5511 31.8475 85.1716 31.9959 84.7126 32.1131C84.2615 32.2104 83.7875 32.1038 83.2908 31.7933C83.1874 31.7066 83.1171 31.5069 83.0799 31.1941C83.0625 30.8892 83.0674 30.6732 83.0945 30.5463C83.118 30.4868 83.0052 30.5111 82.7561 30.6193C82.5348 30.7155 82.258 30.8357 81.926 30.98C81.6138 31.132 81.3193 31.2682 81.0426 31.3884C80.5409 31.6722 79.9606 32.0969 79.3019 32.6627C78.6431 33.2285 77.8561 33.9158 76.9411 34.7245C76.5073 35.1268 76.121 35.5248 75.7823 35.9187C75.4513 36.2927 75.1848 36.4743 74.9827 36.4634ZM85.1887 40.9689C84.9307 40.8672 84.7419 40.7354 84.6222 40.5736C84.5224 40.4196 84.3986 40.2103 84.2507 39.9456C84.0301 39.4 83.8908 38.852 83.8326 38.3016C83.7942 37.7591 83.8713 37.3308 84.0639 37.0169C84.1861 36.8816 84.2646 36.7406 84.2995 36.5939C84.3621 36.4351 84.3934 36.3557 84.3934 36.3557C84.3333 36.2173 84.327 36.1461 84.3745 36.1419C84.4299 36.1178 84.493 36.0739 84.564 36.0102C84.6831 36.0571 84.7658 35.9636 84.8122 35.7297C84.8351 35.5553 85.0277 35.2413 85.3899 34.7879C85.7798 34.3225 86.2175 33.9103 86.703 33.5514C86.9003 33.3999 87.1807 33.2123 87.544 32.9887C87.9152 32.7452 88.3023 32.5194 88.7054 32.3114C89.1361 32.0914 89.5097 31.9291 89.8261 31.8246C90.4866 31.6034 91.0761 31.446 91.5946 31.3523C92.1329 31.2665 92.6399 31.26 93.1157 31.3329C93.5914 31.4058 94.0575 31.5323 94.514 31.7123C94.9903 31.9001 95.3147 32.2114 95.4872 32.6463C95.8654 33.0248 96.0773 33.4179 96.1229 33.8257C96.1884 34.2414 96.1452 34.7288 95.9935 35.2882C95.8183 35.907 95.4692 36.6179 94.9463 37.4207C94.4312 38.2037 93.5537 39.0043 92.3138 39.8225C91.536 40.3414 90.8306 40.7054 90.1978 40.9145C89.565 41.1236 88.8943 41.2834 88.1857 41.3939C87.6594 41.5074 87.1464 41.5 86.6466 41.3718C86.1468 41.2435 85.6608 41.1092 85.1887 40.9689ZM89.6572 38.5343C90.2425 38.3293 90.7144 38.0339 91.073 37.6478C91.4515 37.2696 91.8711 36.8159 92.332 36.2867C92.4584 36.199 92.5862 36.0201 92.7156 35.75C92.8649 35.4878 92.9804 35.2238 93.0623 34.958C93.152 34.6723 93.1451 34.4862 93.0417 34.3995C92.9179 34.1902 92.751 34.09 92.5411 34.0989C92.339 34.0881 92.0599 34.1271 91.7038 34.216C90.9128 34.4774 90.1301 34.8338 89.3559 35.2853C88.6093 35.7248 87.9529 36.3718 87.3867 37.2263C87.1315 37.699 87.0325 38.0956 87.0895 38.4162C87.1742 38.7248 87.4247 38.9038 87.8409 38.9533C88.2848 38.9907 88.8902 38.851 89.6572 38.5343ZM93.7242 45.607C93.5053 45.406 93.3595 45.1651 93.2868 44.8842C93.2063 44.6231 93.2343 44.2902 93.371 43.8855C93.4529 43.6196 93.6115 43.2465 93.8468 42.766C94.0899 42.2656 94.3628 41.777 94.6655 41.3001C94.6812 41.2604 94.6968 41.2207 94.7125 41.181C94.7558 41.1293 94.7814 41.0935 94.7892 41.0737C94.8403 41.0021 94.9071 40.8909 94.9896 40.7399C95.0799 40.5691 95.1545 40.438 95.2135 40.3466C95.3001 40.2432 95.3239 40.2411 95.2847 40.3403L95.7803 39.607C96.0005 39.281 96.2346 38.9491 96.4825 38.6111C96.7304 38.2732 96.9488 37.9809 97.1377 37.7344C97.3543 37.4758 97.4804 37.3306 97.5159 37.2987C97.5159 37.2987 97.5887 37.2013 97.7343 37.0065C97.9076 36.7996 98.0809 36.5927 98.2542 36.3859C98.963 35.5188 99.5854 34.8125 100.121 34.2671C100.677 33.7296 101.123 33.355 101.459 33.1434C101.502 33.0917 101.559 33.0339 101.63 32.9702C101.709 32.8866 101.77 32.819 101.814 32.7672C101.9 32.5489 101.972 32.3941 102.031 32.3027C102.11 32.2191 102.195 32.1493 102.286 32.0934C102.357 32.0297 102.455 31.9539 102.582 31.8662C102.716 31.7585 102.872 31.6251 103.049 31.4657L103.297 31.1852C103.518 30.9741 103.784 30.7351 104.096 30.4682C104.415 30.1814 104.65 29.9643 104.8 29.817C104.93 29.6618 105.131 29.5004 105.404 29.3327C105.684 29.1451 105.949 29.0546 106.199 29.0613L106.18 29.0198C106.35 28.8803 106.593 28.8157 106.91 28.8261C107.235 28.8165 107.487 28.847 107.666 28.9174C107.943 29.027 108.12 29.1885 108.197 29.4021C108.293 29.6234 108.286 29.873 108.177 30.1509C108.059 30.4486 107.963 30.663 107.889 30.7941C107.842 30.9132 107.718 31.0247 107.516 31.1287L107.546 31.1404C107.601 31.1164 107.568 31.172 107.446 31.3073C107.323 31.4426 107.231 31.5322 107.168 31.5761C107.089 31.6597 106.996 31.7493 106.89 31.8449C106.803 31.9483 106.718 32.018 106.635 32.0541C106.544 32.11 106.276 32.3253 105.83 32.6999C105.392 33.0546 104.889 33.4869 104.321 33.9968C103.761 34.4868 103.215 34.9709 102.683 35.4489C102.178 35.9149 101.803 36.2832 101.559 36.5538L101.234 36.9416C101.183 37.0132 101.149 37.0688 101.134 37.1085C101.02 37.224 100.905 37.3394 100.791 37.4549C100.677 37.5703 100.57 37.6659 100.471 37.7417L99.2674 39.3996L98.9018 39.9778L98.3639 40.5569L97.9623 41.0521C97.8756 41.1555 97.795 41.2727 97.7204 41.4038C97.6458 41.5349 97.567 41.6185 97.4839 41.6546C97.4761 41.6744 97.4545 41.7003 97.419 41.7322C97.4111 41.752 97.4033 41.7719 97.3955 41.7917C97.1909 42.0779 96.8759 42.4697 96.4505 42.967C96.045 43.4721 95.6854 44.0642 95.3719 44.7432C95.364 44.763 95.3463 44.7789 95.3186 44.791C95.3108 44.8108 95.303 44.8306 95.2951 44.8505C95.0713 45.2438 94.8171 45.5105 94.5325 45.6505C94.26 45.8183 93.9906 45.8038 93.7242 45.607ZM100.28 47.5383C99.864 47.4889 99.5696 47.2467 99.3971 46.8118C99.2168 46.3967 99.1845 45.868 99.3002 45.2257C99.4158 44.5833 99.6978 43.9263 100.146 43.2546C100.339 43.0556 100.509 42.8586 100.654 42.6638C100.808 42.4491 100.912 42.2723 100.967 42.1334C101.085 41.9506 101.277 41.6941 101.545 41.364C101.821 41.014 102.11 40.658 102.413 40.296C102.717 39.934 102.99 39.6177 103.235 39.3471C103.507 39.0645 103.678 38.8913 103.749 38.8276C103.828 38.8589 103.925 38.8168 104.04 38.7014C104.154 38.5859 104.238 38.4587 104.293 38.3198C104.356 38.161 104.456 37.9941 104.594 37.8192C104.751 37.652 104.886 37.5444 104.996 37.4963C105.035 37.397 105.098 37.2957 105.185 37.1923C105.299 37.0768 105.372 36.9794 105.403 36.9C105.435 36.8206 105.486 36.7491 105.557 36.6854C105.648 36.6294 105.709 36.5618 105.74 36.4824C105.981 36.2792 106.32 35.9428 106.757 35.4731C107.222 34.9915 107.721 34.4542 108.253 33.8613C108.804 33.2762 109.332 32.6933 109.836 32.1124C110.341 31.5315 110.752 31.0402 111.071 30.6385C111.418 30.2248 111.611 29.9683 111.65 29.8691C111.712 29.7103 111.83 29.585 112.004 29.493C112.178 29.401 112.345 29.3863 112.503 29.4489C112.586 29.4129 112.741 29.4279 112.967 29.4942C113.201 29.5406 113.358 29.5794 113.437 29.6107C113.437 29.6107 113.461 29.666 113.509 29.7767C113.557 29.8874 113.629 30.0534 113.726 30.2748C113.83 30.4763 113.916 30.6938 113.984 30.9272C114.073 31.1684 114.07 31.4081 113.976 31.6462C113.874 31.9043 113.737 32.1367 113.563 32.3435C113.41 32.5582 113.162 32.8387 112.819 33.1851C112.484 33.5116 111.971 33.9974 111.281 34.6426C110.966 34.9769 110.648 35.2875 110.329 35.5743C110.017 35.8413 109.846 36.0145 109.815 36.0938C109.783 36.1732 109.697 36.2767 109.555 36.4041C109.432 36.5394 109.285 36.7105 109.111 36.9174C108.969 37.0448 108.766 37.24 108.502 37.5027C108.246 37.7456 107.968 38.0144 107.668 38.3091C107.396 38.5917 107.16 38.8424 106.959 39.0613C106.766 39.2603 106.662 39.3797 106.646 39.4194C106.615 39.4988 106.573 39.5742 106.522 39.6458C106.491 39.7252 106.42 39.7889 106.309 39.837C106.23 39.8057 106.157 39.8457 106.09 39.9569C106.051 40.0562 106.031 40.1058 106.031 40.1058C105.953 40.3042 105.587 40.7676 104.933 41.4958C104.185 42.4621 103.492 43.347 102.854 44.1504C102.236 44.9616 101.818 45.645 101.599 46.2007C101.411 46.6771 101.187 47.0129 100.926 47.2083C100.686 47.4116 100.47 47.5216 100.28 47.5383Z" fill="#777777"/>
<defs>
<linearGradient id="paint0_linear_213_61" x1="11.5419" y1="26.1261" x2="36.5419" y2="13.6261" gradientUnits="userSpaceOnUse">
<stop stop-color="#777777"/>
<stop offset="1" stop-color="#DDDDDD" stop-opacity="0"/>
</linearGradient>
</defs>
</svg>
