<svg width="21" height="20" viewBox="0 0 21 20" fill="none" xmlns="http://www.w3.org/2000/svg">
<path opacity="0.2" d="M18.3954 8.49926L14.5907 11.7805L15.7532 16.686C15.7839 16.812 15.7766 16.9444 15.7321 17.0663C15.6876 17.1882 15.608 17.2942 15.5034 17.3708C15.3987 17.4475 15.2736 17.4914 15.144 17.497C15.0143 17.5027 14.886 17.4697 14.775 17.4024L10.5 14.7727L6.22504 17.4016C6.11412 17.4689 5.98574 17.5019 5.8561 17.4963C5.72647 17.4907 5.6014 17.4467 5.49672 17.3701C5.39204 17.2934 5.31244 17.1874 5.26798 17.0655C5.22351 16.9436 5.21618 16.8113 5.24692 16.6852L6.40942 11.7797L2.60473 8.49848C2.50772 8.41331 2.43779 8.30158 2.40355 8.17711C2.36931 8.05264 2.37228 7.92087 2.41208 7.79806C2.45188 7.67526 2.52677 7.56679 2.62751 7.48607C2.72825 7.40534 2.85042 7.35588 2.97895 7.34379L7.97192 6.93754L9.89536 2.28129C9.94439 2.16117 10.0281 2.05837 10.1358 1.98601C10.2435 1.91365 10.3703 1.875 10.5 1.875C10.6298 1.875 10.7566 1.91365 10.8643 1.98601C10.972 2.05837 11.0557 2.16117 11.1047 2.28129L13.0282 6.93754L18.0211 7.34379C18.1498 7.35574 18.2722 7.40515 18.3731 7.48593C18.474 7.56671 18.549 7.6753 18.5889 7.79826C18.6287 7.92123 18.6316 8.05317 18.5972 8.17777C18.5628 8.30236 18.4926 8.41414 18.3954 8.49926Z" fill="black"/>
<path d="M19.186 7.59833C19.1078 7.35811 18.9604 7.1464 18.7621 6.98986C18.5639 6.83331 18.3237 6.73895 18.0719 6.71864L13.4626 6.34677L11.6829 2.04286C11.5866 1.80834 11.4228 1.60774 11.2123 1.46656C11.0017 1.32538 10.7539 1.25 10.5004 1.25C10.2469 1.25 9.99917 1.32538 9.78862 1.46656C9.57808 1.60774 9.41427 1.80834 9.31802 2.04286L7.5399 6.34599L2.92818 6.71864C2.67597 6.73997 2.43567 6.83525 2.23738 6.99255C2.03908 7.14985 1.89162 7.36217 1.81346 7.6029C1.7353 7.84364 1.72992 8.10209 1.79799 8.34587C1.86607 8.58965 2.00457 8.80792 2.19615 8.97333L5.71177 12.0069L4.64068 16.5429C4.58077 16.7893 4.59544 17.048 4.68282 17.286C4.77019 17.5241 4.92634 17.7309 5.13143 17.88C5.33652 18.0292 5.58131 18.1141 5.83472 18.1239C6.08813 18.1337 6.33875 18.0679 6.55474 17.935L10.5001 15.5069L14.4477 17.935C14.6638 18.0664 14.9139 18.1308 15.1665 18.1203C15.4191 18.1098 15.663 18.0247 15.8674 17.8759C16.0718 17.727 16.2276 17.521 16.3151 17.2838C16.4027 17.0466 16.4181 16.7888 16.3594 16.5429L15.2844 12.0061L18.8001 8.97255C18.9932 8.80741 19.1329 8.58867 19.2017 8.34403C19.2704 8.09939 19.2649 7.83987 19.186 7.59833ZM17.9876 8.02567L14.1829 11.3069C14.0961 11.3817 14.0316 11.4789 13.9963 11.5879C13.961 11.6969 13.9564 11.8134 13.9829 11.9249L15.1454 16.8311C15.1484 16.8379 15.1487 16.8456 15.1462 16.8525C15.1437 16.8595 15.1387 16.8653 15.1321 16.8686C15.118 16.8796 15.1141 16.8772 15.1024 16.8686L10.8274 14.2397C10.7289 14.1792 10.6156 14.1472 10.5001 14.1472C10.3845 14.1472 10.2712 14.1792 10.1727 14.2397L5.89771 16.8702C5.88599 16.8772 5.88286 16.8796 5.86802 16.8702C5.86143 16.8668 5.85637 16.8611 5.8539 16.8541C5.85143 16.8471 5.85173 16.8395 5.85474 16.8327L7.01724 11.9265C7.04373 11.815 7.03909 11.6984 7.00382 11.5894C6.96855 11.4805 6.90401 11.3833 6.81724 11.3085L3.01255 8.02724C3.00318 8.01942 2.99458 8.01239 3.0024 7.98817C3.01021 7.96395 3.01646 7.96708 3.02818 7.96552L8.02193 7.56239C8.13647 7.55257 8.24608 7.51134 8.3387 7.44325C8.43133 7.37516 8.50338 7.28284 8.54693 7.17645L10.4704 2.51942C10.4766 2.50614 10.479 2.49989 10.4977 2.49989C10.5165 2.49989 10.5188 2.50614 10.5251 2.51942L12.4532 7.17645C12.4971 7.28289 12.5696 7.3751 12.6627 7.44293C12.7558 7.51076 12.8657 7.55156 12.9805 7.56083L17.9743 7.96395C17.986 7.96395 17.993 7.96395 18.0001 7.98661C18.0071 8.00927 18.0001 8.01786 17.9876 8.02567Z" fill="black"/>
</svg>
