<svg width="16" height="15" viewBox="0 0 16 15" fill="none" xmlns="http://www.w3.org/2000/svg">
<path d="M14.875 0.75H1.125C0.95924 0.75 0.800269 0.815848 0.683058 0.933058C0.565848 1.05027 0.5 1.20924 0.5 1.375V13.25C0.5 13.5815 0.631696 13.8995 0.866116 14.1339C1.10054 14.3683 1.41848 14.5 1.75 14.5H4.875C5.20652 14.5 5.52446 14.3683 5.75888 14.1339C5.9933 13.8995 6.125 13.5815 6.125 13.25V9.5H9.875V10.75C9.875 11.0815 10.0067 11.3995 10.2411 11.6339C10.4755 11.8683 10.7935 12 11.125 12H14.25C14.5815 12 14.8995 11.8683 15.1339 11.6339C15.3683 11.3995 15.5 11.0815 15.5 10.75V1.375C15.5 1.20924 15.4342 1.05027 15.3169 0.933058C15.1997 0.815848 15.0408 0.75 14.875 0.75ZM14.25 5.75H11.125V2H14.25V5.75ZM4.875 2V5.75H1.75V2H4.875ZM4.875 13.25H1.75V7H4.875V13.25ZM6.125 8.25V2H9.875V8.25H6.125ZM11.125 10.75V7H14.25V10.75H11.125Z" fill="#94D610"/>
</svg>
