<svg width="48" height="48" viewBox="0 0 48 48" fill="none" xmlns="http://www.w3.org/2000/svg">
<rect opacity="0.2" width="48" height="48" rx="10" fill="#FC9458"/>
<path opacity="0.2" d="M26.5 16C26.0055 16 25.5222 15.8534 25.1111 15.5787C24.7 15.304 24.3795 14.9135 24.1903 14.4567C24.0011 13.9999 23.9516 13.4972 24.048 13.0123C24.1445 12.5273 24.3826 12.0819 24.7322 11.7322C25.0819 11.3826 25.5273 11.1445 26.0123 11.048C26.4972 10.9516 26.9999 11.0011 27.4567 11.1903C27.9135 11.3795 28.304 11.7 28.5787 12.1111C28.8534 12.5222 29 13.0055 29 13.5C29 14.163 28.7366 14.7989 28.2678 15.2678C27.7989 15.7366 27.163 16 26.5 16ZM34.5 21C34.0055 21 33.5222 21.1466 33.1111 21.4213C32.7 21.696 32.3795 22.0865 32.1903 22.5433C32.0011 23.0001 31.9516 23.5028 32.048 23.9877C32.1445 24.4727 32.3826 24.9181 32.7322 25.2678C33.0819 25.6174 33.5273 25.8555 34.0123 25.952C34.4972 26.0484 34.9999 25.9989 35.4567 25.8097C35.9135 25.6205 36.304 25.3 36.5787 24.8889C36.8534 24.4778 37 23.9945 37 23.5C37 22.837 36.7366 22.2011 36.2678 21.7322C35.7989 21.2634 35.163 21 34.5 21ZM27.5 32C27.0055 32 26.5222 32.1466 26.1111 32.4213C25.7 32.696 25.3795 33.0865 25.1903 33.5433C25.0011 34.0001 24.9516 34.5028 25.048 34.9877C25.1445 35.4727 25.3826 35.9181 25.7322 36.2678C26.0819 36.6174 26.5273 36.8555 27.0123 36.952C27.4972 37.0484 27.9999 36.9989 28.4567 36.8097C28.9135 36.6205 29.304 36.3001 29.5787 35.8889C29.8534 35.4778 30 34.9945 30 34.5C30 33.837 29.7366 33.2011 29.2678 32.7322C28.7989 32.2634 28.163 32 27.5 32ZM15 28.5C14.5055 28.5 14.0222 28.6466 13.6111 28.9213C13.2 29.196 12.8795 29.5865 12.6903 30.0433C12.5011 30.5001 12.4516 31.0028 12.548 31.4877C12.6445 31.9727 12.8826 32.4181 13.2322 32.7678C13.5819 33.1174 14.0273 33.3555 14.5123 33.452C14.9972 33.5484 15.4999 33.4989 15.9567 33.3097C16.4135 33.1205 16.804 32.8001 17.0787 32.3889C17.3534 31.9778 17.5 31.4945 17.5 31C17.5 30.337 17.2366 29.7011 16.7678 29.2322C16.2989 28.7634 15.663 28.5 15 28.5ZM14.5 21C14.9945 21 15.4778 20.8534 15.8889 20.5787C16.3 20.304 16.6205 19.9135 16.8097 19.4567C16.9989 18.9999 17.0484 18.4972 16.952 18.0123C16.8555 17.5273 16.6174 17.0819 16.2678 16.7322C15.9181 16.3826 15.4727 16.1445 14.9877 16.048C14.5028 15.9516 14.0001 16.0011 13.5433 16.1903C13.0865 16.3795 12.696 16.7 12.4213 17.1111C12.1466 17.5222 12 18.0055 12 18.5C12 19.163 12.2634 19.7989 12.7322 20.2678C13.2011 20.7366 13.837 21 14.5 21Z" fill="#FC9458"/>
<path d="M34.5 20C34.05 19.9977 33.6039 20.0826 33.1862 20.25L29.375 15.4925C29.6883 15.0413 29.891 14.5227 29.9666 13.9786C30.0423 13.4345 29.9888 12.8803 29.8106 12.3607C29.6323 11.8411 29.3343 11.3708 28.9405 10.9877C28.5468 10.6047 28.0684 10.3197 27.5441 10.1558C27.0198 9.99196 26.4643 9.9538 25.9225 10.0444C25.3807 10.1351 24.8679 10.352 24.4254 10.6776C23.983 11.0032 23.6234 11.4283 23.3758 11.9187C23.1282 12.409 22.9994 12.9507 23 13.5C22.9999 13.6228 23.0062 13.7454 23.0187 13.8675L17.21 16.2875C16.8601 15.8584 16.4133 15.5183 15.9065 15.2954C15.3996 15.0724 14.847 14.973 14.2942 15.0051C13.7414 15.0372 13.2041 15.2001 12.7264 15.4802C12.2488 15.7604 11.8445 16.1499 11.5466 16.6168C11.2488 17.0836 11.066 17.6144 11.0132 18.1657C10.9605 18.7169 11.0393 19.2728 11.2431 19.7876C11.447 20.3025 11.7701 20.7616 12.1859 21.1273C12.6017 21.493 13.0983 21.7549 13.635 21.8913L13.8662 27.6888C13.3363 27.8697 12.8576 28.1752 12.4702 28.5794C12.0828 28.9837 11.798 29.475 11.6398 30.0122C11.4816 30.5493 11.4546 31.1165 11.561 31.6662C11.6674 32.216 11.9042 32.7322 12.2514 33.1714C12.5986 33.6107 13.0462 33.9603 13.5565 34.1908C14.0668 34.4213 14.6249 34.5259 15.184 34.4961C15.7432 34.4662 16.287 34.3026 16.7698 34.019C17.2526 33.7354 17.6603 33.3401 17.9587 32.8663L24 34.5588C24.0085 35.1217 24.1526 35.6743 24.4202 36.1697C24.6879 36.665 25.071 37.0885 25.5372 37.4042C26.0034 37.7198 26.5388 37.9184 27.0981 37.983C27.6574 38.0475 28.224 37.9763 28.7499 37.7751C29.2757 37.574 29.7453 37.249 30.1188 36.8277C30.4922 36.4064 30.7585 35.9012 30.8951 35.355C31.0316 34.8088 31.0344 34.2377 30.9032 33.6902C30.772 33.1427 30.5106 32.635 30.1412 32.21L33.5425 26.8663C34.0239 27.0033 34.5291 27.0355 35.024 26.9607C35.5189 26.8859 35.992 26.7058 36.4114 26.4326C36.8308 26.1593 37.1867 25.7993 37.4551 25.3768C37.7235 24.9543 37.8981 24.4792 37.9673 23.9834C38.0364 23.4877 37.9984 22.9829 37.8558 22.5031C37.7132 22.0233 37.4694 21.5797 37.1408 21.2021C36.8122 20.8246 36.4064 20.5219 35.9508 20.3145C35.4953 20.1072 35.0005 19.9999 34.5 20ZM27.5 31H27.3887L25.3662 24.9338L31.1975 24.6563C31.3449 25.0694 31.5688 25.4511 31.8575 25.7813L28.4562 31.125C28.1448 31.0395 27.823 30.9974 27.5 31ZM15.865 27.6088L15.6337 21.8113C16.1052 21.6489 16.5365 21.3877 16.8987 21.045L22.215 24.125L17.0325 28.1525C16.6803 27.9006 16.2844 27.7163 15.865 27.6088ZM26.6962 17C27.08 16.9791 27.4576 16.8946 27.8137 16.75L31.625 21.5075C31.3819 21.8566 31.2048 22.2472 31.1025 22.66L25.2812 22.9375L26.6962 17ZM18.2612 29.7313L23.5 25.6575L25.4925 31.6363C25.1131 31.9038 24.7902 32.2437 24.5425 32.6363L18.5 30.9413C18.4927 30.527 18.4118 30.1173 18.2612 29.7313ZM26.5 12C26.7967 12 27.0867 12.088 27.3334 12.2528C27.58 12.4177 27.7723 12.6519 27.8858 12.926C27.9993 13.2001 28.0291 13.5017 27.9712 13.7927C27.9133 14.0837 27.7704 14.3509 27.5607 14.5607C27.3509 14.7705 27.0836 14.9133 26.7926 14.9712C26.5017 15.0291 26.2001 14.9994 25.926 14.8859C25.6519 14.7723 25.4176 14.5801 25.2528 14.3334C25.088 14.0867 25 13.7967 25 13.5C25 13.1022 25.158 12.7207 25.4393 12.4394C25.7206 12.1581 26.1022 12 26.5 12ZM23.79 15.7125C24.0587 16.0401 24.3838 16.3169 24.75 16.53L23.3375 22.4613L17.9037 19.315C17.9677 19.0481 18 18.7745 18 18.5C18.0001 18.3773 17.9938 18.2546 17.9812 18.1325L23.79 15.7125ZM13 18.5C13 18.2034 13.088 17.9134 13.2528 17.6667C13.4176 17.42 13.6519 17.2278 13.926 17.1142C14.2001 17.0007 14.5017 16.971 14.7926 17.0289C15.0836 17.0867 15.3509 17.2296 15.5607 17.4394C15.7704 17.6492 15.9133 17.9164 15.9712 18.2074C16.0291 18.4984 15.9993 18.8 15.8858 19.0741C15.7723 19.3482 15.58 19.5824 15.3334 19.7473C15.0867 19.9121 14.7967 20 14.5 20C14.1022 20 13.7206 19.842 13.4393 19.5607C13.158 19.2794 13 18.8979 13 18.5ZM15 32.5C14.7033 32.5 14.4133 32.4121 14.1666 32.2473C13.92 32.0824 13.7277 31.8482 13.6142 31.5741C13.5006 31.3 13.4709 30.9984 13.5288 30.7074C13.5867 30.4164 13.7296 30.1492 13.9393 29.9394C14.1491 29.7296 14.4164 29.5867 14.7074 29.5289C14.9983 29.471 15.2999 29.5007 15.574 29.6142C15.8481 29.7278 16.0824 29.92 16.2472 30.1667C16.412 30.4134 16.5 30.7034 16.5 31C16.5 31.3979 16.342 31.7794 16.0607 32.0607C15.7794 32.342 15.3978 32.5 15 32.5ZM27.5 36C27.2033 36 26.9133 35.9121 26.6666 35.7473C26.42 35.5824 26.2277 35.3482 26.1142 35.0741C26.0006 34.8 25.9709 34.4984 26.0288 34.2074C26.0867 33.9164 26.2296 33.6492 26.4393 33.4394C26.6491 33.2296 26.9164 33.0867 27.2074 33.0289C27.4983 32.971 27.7999 33.0007 28.074 33.1142C28.3481 33.2278 28.5824 33.42 28.7472 33.6667C28.912 33.9134 29 34.2034 29 34.5C29 34.8979 28.842 35.2794 28.5607 35.5607C28.2794 35.842 27.8978 36 27.5 36ZM34.5 25C34.2033 25 33.9133 24.9121 33.6666 24.7473C33.42 24.5824 33.2277 24.3482 33.1142 24.0741C33.0006 23.8 32.9709 23.4984 33.0288 23.2074C33.0867 22.9164 33.2296 22.6492 33.4393 22.4394C33.6491 22.2296 33.9164 22.0867 34.2074 22.0289C34.4983 21.971 34.7999 22.0007 35.074 22.1142C35.3481 22.2278 35.5824 22.42 35.7472 22.6667C35.912 22.9134 36 23.2034 36 23.5C36 23.8979 35.842 24.2794 35.5607 24.5607C35.2794 24.842 34.8978 25 34.5 25Z" fill="#FC9458"/>
</svg>
