<svg width="48" height="48" viewBox="0 0 48 48" fill="none" xmlns="http://www.w3.org/2000/svg">
<rect opacity="0.2" width="48" height="48" rx="10" fill="#A2EA13"/>
<path d="M35.375 22.25H24.875V19.625H25.75C26.2141 19.625 26.6592 19.4406 26.9874 19.1124C27.3156 18.7842 27.5 18.3391 27.5 17.875V14.375C27.5 13.9109 27.3156 13.4658 26.9874 13.1376C26.6592 12.8094 26.2141 12.625 25.75 12.625H22.25C21.7859 12.625 21.3408 12.8094 21.0126 13.1376C20.6844 13.4658 20.5 13.9109 20.5 14.375V17.875C20.5 18.3391 20.6844 18.7842 21.0126 19.1124C21.3408 19.4406 21.7859 19.625 22.25 19.625H23.125V22.25H12.625C12.3929 22.25 12.1704 22.3422 12.0063 22.5063C11.8422 22.6704 11.75 22.8929 11.75 23.125C11.75 23.3571 11.8422 23.5796 12.0063 23.7437C12.1704 23.9078 12.3929 24 12.625 24H16.125V27.5H15.25C14.7859 27.5 14.3408 27.6844 14.0126 28.0126C13.6844 28.3408 13.5 28.7859 13.5 29.25V32.75C13.5 33.2141 13.6844 33.6592 14.0126 33.9874C14.3408 34.3156 14.7859 34.5 15.25 34.5H18.75C19.2141 34.5 19.6592 34.3156 19.9874 33.9874C20.3156 33.6592 20.5 33.2141 20.5 32.75V29.25C20.5 28.7859 20.3156 28.3408 19.9874 28.0126C19.6592 27.6844 19.2141 27.5 18.75 27.5H17.875V24H30.125V27.5H29.25C28.7859 27.5 28.3408 27.6844 28.0126 28.0126C27.6844 28.3408 27.5 28.7859 27.5 29.25V32.75C27.5 33.2141 27.6844 33.6592 28.0126 33.9874C28.3408 34.3156 28.7859 34.5 29.25 34.5H32.75C33.2141 34.5 33.6592 34.3156 33.9874 33.9874C34.3156 33.6592 34.5 33.2141 34.5 32.75V29.25C34.5 28.7859 34.3156 28.3408 33.9874 28.0126C33.6592 27.6844 33.2141 27.5 32.75 27.5H31.875V24H35.375C35.6071 24 35.8296 23.9078 35.9937 23.7437C36.1578 23.5796 36.25 23.3571 36.25 23.125C36.25 22.8929 36.1578 22.6704 35.9937 22.5063C35.8296 22.3422 35.6071 22.25 35.375 22.25ZM22.25 14.375H25.75V17.875H22.25V14.375ZM18.75 32.75H15.25V29.25H18.75V32.75ZM32.75 32.75H29.25V29.25H32.75V32.75Z" fill="#6DA203"/>
</svg>
