<svg width="49" height="48" viewBox="0 0 49 48" fill="none" xmlns="http://www.w3.org/2000/svg">
<rect opacity="0.2" x="0.954468" width="48" height="48" rx="10" fill="#7F61FB"/>
<g clip-path="url(#clip0_223_544)">
<path opacity="0.2" d="M37.2045 24C30.2045 24 37.2045 33.625 30.2045 33.625H19.7045C12.7045 33.625 19.7045 24 12.7045 24C19.7045 24 12.7045 14.375 19.7045 14.375H30.2045C37.2045 14.375 30.2045 24 37.2045 24Z" fill="#7F61FB"/>
<path d="M15.6773 24C16.0481 24.305 16.3469 24.6882 16.5523 25.1222C17.0773 26.205 17.0773 27.5284 17.0773 28.8125C17.0773 31.4714 17.1866 32.75 19.7023 32.75C19.9343 32.75 20.1569 32.8422 20.321 33.0063C20.4851 33.1704 20.5773 33.3929 20.5773 33.625C20.5773 33.8571 20.4851 34.0796 20.321 34.2437C20.1569 34.4078 19.9343 34.5 19.7023 34.5C17.7904 34.5 16.4954 33.8284 15.8523 32.5028C15.3273 31.42 15.3273 30.0966 15.3273 28.8125C15.3273 26.1536 15.2179 24.875 12.7023 24.875C12.4702 24.875 12.2476 24.7828 12.0836 24.6187C11.9195 24.4546 11.8273 24.2321 11.8273 24C11.8273 23.7679 11.9195 23.5454 12.0836 23.3813C12.2476 23.2172 12.4702 23.125 12.7023 23.125C15.2179 23.125 15.3273 21.8464 15.3273 19.1875C15.3273 17.9056 15.3273 16.58 15.8523 15.4972C16.4976 14.1716 17.7926 13.5 19.7045 13.5C19.9365 13.5 20.1591 13.5922 20.3232 13.7563C20.4873 13.9204 20.5795 14.1429 20.5795 14.375C20.5795 14.6071 20.4873 14.8296 20.3232 14.9937C20.1591 15.1578 19.9365 15.25 19.7045 15.25C17.1888 15.25 17.0795 16.5286 17.0795 19.1875C17.0795 20.4694 17.0795 21.795 16.5545 22.8778C16.3484 23.312 16.0489 23.6952 15.6773 24ZM37.2045 23.125C34.6888 23.125 34.5795 21.8464 34.5795 19.1875C34.5795 17.9056 34.5795 16.58 34.0545 15.4972C33.4113 14.1716 32.1163 13.5 30.2045 13.5C29.9724 13.5 29.7498 13.5922 29.5857 13.7563C29.4216 13.9204 29.3295 14.1429 29.3295 14.375C29.3295 14.6071 29.4216 14.8296 29.5857 14.9937C29.7498 15.1578 29.9724 15.25 30.2045 15.25C32.7201 15.25 32.8295 16.5286 32.8295 19.1875C32.8295 20.4694 32.8295 21.795 33.3545 22.8778C33.5599 23.3118 33.8586 23.695 34.2295 24C33.8586 24.305 33.5599 24.6882 33.3545 25.1222C32.8295 26.205 32.8295 27.5284 32.8295 28.8125C32.8295 31.4714 32.7201 32.75 30.2045 32.75C29.9724 32.75 29.7498 32.8422 29.5857 33.0063C29.4216 33.1704 29.3295 33.3929 29.3295 33.625C29.3295 33.8571 29.4216 34.0796 29.5857 34.2437C29.7498 34.4078 29.9724 34.5 30.2045 34.5C32.1163 34.5 33.4113 33.8284 34.0545 32.5028C34.5795 31.42 34.5795 30.0966 34.5795 28.8125C34.5795 26.1536 34.6888 24.875 37.2045 24.875C37.4365 24.875 37.6591 24.7828 37.8232 24.6187C37.9873 24.4546 38.0795 24.2321 38.0795 24C38.0795 23.7679 37.9873 23.5454 37.8232 23.3813C37.6591 23.2172 37.4365 23.125 37.2045 23.125Z" fill="#7F61FB"/>
</g>
<defs>
<clipPath id="clip0_223_544">
<rect width="28" height="28" fill="white" transform="translate(10.9545 10)"/>
</clipPath>
</defs>
</svg>
